<svg width="18" height="18" viewBox="0 0 18 18" fill="none" xmlns="http://www.w3.org/2000/svg">
<path fill-rule="evenodd" clip-rule="evenodd" d="M8.34995 12.7723L4.93781 9.36013C5.31302 8.73234 5.68702 8.0827 6.05738 7.4367C7.29109 5.29227 8.49567 3.19884 9.62495 2.10963C12.6898 -0.955227 16.8876 0.822488 16.8876 0.822488C16.8876 0.822488 18.6653 5.02027 15.6005 8.08513C14.5197 9.2047 12.4591 10.3923 10.3305 11.6163C9.66745 11.9988 8.99838 12.3837 8.34995 12.7723ZM10.9485 4.84056C10.9485 4.33108 11.1509 3.84246 11.5112 3.48221C11.8714 3.12195 12.36 2.91956 12.8695 2.91956C13.379 2.91956 13.8676 3.12195 14.2279 3.48221C14.5881 3.84246 14.7905 4.33108 14.7905 4.84056C14.7779 5.34152 14.5701 5.81773 14.2113 6.16759C13.8525 6.51745 13.3712 6.71327 12.8701 6.71327C12.369 6.71327 11.8877 6.51745 11.529 6.16759C11.1702 5.81773 10.9611 5.34152 10.9485 4.84056ZM5.98331 4.55885C4.26145 4.10106 2.64524 4.94863 1.21117 6.2637C1.14503 6.326 1.09438 6.4029 1.06325 6.48826C1.03212 6.57361 1.02138 6.66506 1.03188 6.75531C1.04238 6.84556 1.07383 6.9321 1.12372 7.00803C1.17362 7.08396 1.24057 7.14718 1.31924 7.19263L3.63245 8.58663L3.63488 8.58177C3.96881 8.0232 4.34159 7.37599 4.72045 6.72027C5.15152 5.97106 5.58988 5.21092 5.98331 4.55885ZM9.12467 14.0788L10.5187 16.3921C10.5642 16.4706 10.6275 16.5375 10.7035 16.5873C10.7795 16.637 10.8661 16.6684 10.9563 16.6788C11.0465 16.6891 11.138 16.6783 11.2233 16.6471C11.3086 16.6158 11.3854 16.5651 11.4476 16.4989C12.7627 15.0661 13.6115 13.4486 13.1525 11.7268C12.5186 12.1081 11.8532 12.4918 11.1938 12.8718L11.093 12.9301C10.4276 13.3138 9.76824 13.6927 9.13074 14.0752L9.12467 14.0788ZM3.58388 11.6551C4.07466 11.6464 4.55655 11.7867 4.96604 12.0573C5.37553 12.328 5.69339 12.7164 5.87773 13.1713C6.06206 13.6262 6.10422 14.1263 5.99864 14.6057C5.89307 15.085 5.64471 15.5212 5.28631 15.8566C5.01674 16.114 4.59538 16.3168 4.2056 16.471C3.76829 16.6392 3.32243 16.7843 2.86988 16.9057C2.42424 17.0271 1.99924 17.1243 1.67745 17.1886C1.54216 17.2164 1.4061 17.2403 1.26945 17.2603C1.21602 17.2676 1.16219 17.2728 1.10795 17.2761C1.02683 17.2834 0.945063 17.2743 0.867523 17.2493C0.753556 17.2162 0.651814 17.1503 0.574881 17.0599C0.508807 16.9834 0.462894 16.8916 0.441309 16.7928C0.425949 16.7226 0.421039 16.6506 0.426738 16.5791C0.430381 16.5305 0.437666 16.4746 0.444952 16.4236C0.460738 16.3168 0.485023 16.1771 0.517809 16.0181C0.582166 15.6975 0.681738 15.2749 0.803166 14.8317C0.924595 14.3897 1.07274 13.9161 1.23909 13.5021C1.39452 13.1123 1.59609 12.6921 1.85352 12.4238C2.07578 12.1863 2.34347 11.9959 2.64071 11.8639C2.93795 11.7318 3.25868 11.6609 3.58388 11.6551Z" fill="white"/>
</svg>
