<svg width="16" height="18" viewBox="0 0 16 18" fill="none" xmlns="http://www.w3.org/2000/svg">
<path d="M5.22145 5.09131C5.22145 3.62373 6.42011 2.43506 7.90002 2.43506C8.9681 2.43506 9.88886 3.05264 10.3208 3.95244C10.5752 4.48369 11.2148 4.70947 11.7471 4.45713C12.2795 4.20479 12.5105 3.57061 12.2561 3.04268C11.4826 1.429 9.82525 0.310059 7.90002 0.310059C5.23819 0.310059 3.0786 2.45166 3.0786 5.09131V6.68506H2.54288C1.36096 6.68506 0.400024 7.63799 0.400024 8.81006V15.1851C0.400024 16.3571 1.36096 17.3101 2.54288 17.3101H13.2572C14.4391 17.3101 15.4 16.3571 15.4 15.1851V8.81006C15.4 7.63799 14.4391 6.68506 13.2572 6.68506H5.22145V5.09131Z" fill="white"/>
</svg>
