<svg width="18" height="18" viewBox="0 0 18 18" fill="none" xmlns="http://www.w3.org/2000/svg">
<path fill-rule="evenodd" clip-rule="evenodd" d="M0.5 6.568V11.432C0.5 13.726 0.5 14.872 1.222 15.585C1.877 16.232 2.896 16.291 4.818 16.297C4.717 15.622 4.696 14.817 4.69 13.869C4.69 13.7725 4.70902 13.677 4.74597 13.5879C4.78292 13.4988 4.83707 13.4178 4.90534 13.3496C4.9736 13.2815 5.05464 13.2274 5.1438 13.1906C5.23297 13.1538 5.32853 13.1349 5.425 13.135C5.52152 13.1338 5.61734 13.1516 5.70697 13.1875C5.7966 13.2233 5.87829 13.2765 5.94738 13.3439C6.01646 13.4113 6.0716 13.4917 6.10962 13.5804C6.14765 13.6691 6.16782 13.7645 6.169 13.861C6.175 14.925 6.202 15.679 6.309 16.251C6.412 16.803 6.576 17.121 6.816 17.359C7.089 17.629 7.472 17.804 8.196 17.899C8.94 17.999 9.926 18 11.341 18H12.326C13.741 18 14.727 17.998 15.472 17.9C16.195 17.804 16.578 17.628 16.85 17.359C17.123 17.089 17.301 16.711 17.398 15.997C17.498 15.263 17.5 14.288 17.5 12.892V5.108C17.5 3.711 17.498 2.738 17.398 2.003C17.301 1.289 17.123 0.91 16.851 0.641C16.578 0.371 16.195 0.196 15.471 0.101C14.728 6.70552e-08 13.742 0 12.327 0H11.342C9.927 0 8.941 0.00199991 8.196 0.0999999C7.473 0.196 7.09 0.372 6.817 0.641C6.577 0.878 6.413 1.197 6.31 1.749C6.203 2.321 6.176 3.075 6.17 4.139C6.16883 4.23552 6.14865 4.33087 6.11062 4.4196C6.0726 4.50832 6.01746 4.58869 5.94838 4.6561C5.87929 4.72352 5.7976 4.77667 5.70797 4.81251C5.61834 4.84835 5.52252 4.86619 5.426 4.865C5.32953 4.86513 5.23397 4.84624 5.1448 4.80941C5.05563 4.77259 4.9746 4.71854 4.90634 4.65037C4.83807 4.5822 4.78392 4.50124 4.74697 4.41212C4.71002 4.323 4.691 4.22747 4.691 4.131C4.697 3.183 4.718 2.378 4.819 1.703C2.897 1.709 1.879 1.768 1.223 2.415C0.501 3.128 0.5 4.275 0.5 6.568ZM2.935 9.516C2.86643 9.4487 2.81195 9.3684 2.77477 9.2798C2.73758 9.1912 2.71843 9.09608 2.71843 9C2.71843 8.90392 2.73758 8.8088 2.77477 8.7202C2.81195 8.6316 2.86643 8.5513 2.935 8.484L4.905 6.538C5.04452 6.40083 5.23234 6.32397 5.428 6.32397C5.62366 6.32397 5.81148 6.40083 5.951 6.538C6.01957 6.6053 6.07405 6.6856 6.11123 6.7742C6.14842 6.8628 6.16757 6.95792 6.16757 7.054C6.16757 7.15008 6.14842 7.2452 6.11123 7.3338C6.07405 7.4224 6.01957 7.5027 5.951 7.57L5.241 8.27H12.327C12.735 8.27 13.067 8.597 13.067 9C13.067 9.403 12.735 9.73 12.327 9.73H5.24L5.95 10.43C6.01857 10.4973 6.07305 10.5776 6.11023 10.6662C6.14742 10.7548 6.16657 10.8499 6.16657 10.946C6.16657 11.0421 6.14742 11.1372 6.11023 11.2258C6.07305 11.3144 6.01857 11.3947 5.95 11.462C5.81048 11.5992 5.62266 11.676 5.427 11.676C5.23134 11.676 5.04352 11.5992 4.904 11.462L2.935 9.516Z" fill="#FF4B4B"/>
</svg>
