<svg width="19" height="21" viewBox="0 0 19 21" fill="none" xmlns="http://www.w3.org/2000/svg">
<path d="M19 6C19 6.26522 18.8946 6.51957 18.7071 6.70711C18.5195 6.89464 18.2652 7 18 7C17.7348 7 17.4804 6.89464 17.2929 6.70711C17.1053 6.51957 17 6.26522 17 6V3.414L13.463 6.951C14.6168 8.46352 15.1528 10.358 14.9623 12.2508C14.7719 14.1437 13.8692 15.8934 12.4372 17.1457C11.0051 18.398 9.15067 19.0594 7.24934 18.9958C5.34801 18.9322 3.5419 18.1485 2.1967 16.8033C0.851511 15.4581 0.0677747 13.652 0.00419383 11.7506C-0.0593871 9.8493 0.601938 7.99486 1.85426 6.5628C3.10658 5.13075 4.85631 4.2281 6.74914 4.03764C8.64197 3.84719 10.5364 4.38315 12.049 5.537L15.586 2H13C12.7348 2 12.4804 1.89464 12.2929 1.70711C12.1053 1.51957 12 1.26522 12 1C12 0.734784 12.1053 0.48043 12.2929 0.292893C12.4804 0.105357 12.7348 0 13 0H17.75C18.44 0 19 0.56 19 1.25V6Z" fill="#2DBCFF"/>
</svg>
