<svg width="13" height="15" viewBox="0 0 13 15" fill="none" xmlns="http://www.w3.org/2000/svg">
<path d="M6.96666 6.13331V2.79998H5.63332V7.46664H9.63332V6.13331H6.96666ZM10.5427 10.376L6.29999 14.6186L2.05732 10.376C1.21822 9.53686 0.646779 8.46776 0.415273 7.30388C0.183768 6.13999 0.302592 4.9336 0.75672 3.83724C1.21085 2.74089 1.97988 1.80382 2.96658 1.14454C3.95327 0.485254 5.11331 0.133362 6.29999 0.133362C7.48667 0.133362 8.64671 0.485254 9.6334 1.14454C10.6201 1.80382 11.3891 2.74089 11.8433 3.83724C12.2974 4.9336 12.4162 6.13999 12.1847 7.30388C11.9532 8.46776 11.3818 9.53686 10.5427 10.376Z" fill="#068F36"/>
</svg>
