<svg width="20" height="21" viewBox="0 0 20 21" fill="none" xmlns="http://www.w3.org/2000/svg">
<path d="M20 10.8501C20 5.32666 15.5234 0.850098 10 0.850098C4.47656 0.850098 0 5.32666 0 10.8501C0 15.5376 3.23047 19.4751 7.58594 20.5571V13.9048H5.52344V10.8501H7.58594V9.53369C7.58594 6.13135 9.125 4.55322 12.4688 4.55322C13.1016 4.55322 14.1953 4.67822 14.6445 4.80322V7.56885C14.4102 7.54541 14 7.52979 13.4883 7.52979C11.8477 7.52979 11.2148 8.15088 11.2148 9.76416V10.8501H14.4805L13.918 13.9048H11.2109V20.7759C16.1641 20.1782 20 15.9634 20 10.8501Z" fill="white"/>
</svg>
