<svg width="16" height="16" viewBox="0 0 16 16" fill="none" xmlns="http://www.w3.org/2000/svg">
<path d="M13 1.33334H2.99998C2.07915 1.33334 1.31165 2.09168 1.53915 2.98334C1.78145 3.92821 2.22763 4.80858 2.84638 5.56266C3.46513 6.31673 4.24145 6.92623 5.12082 7.34834C5.80665 7.67668 6.33332 8.32168 6.33332 9.08168V14.1517C6.33339 14.2937 6.36975 14.4333 6.43894 14.5573C6.50812 14.6813 6.60785 14.7855 6.72865 14.8602C6.84944 14.9348 6.98731 14.9773 7.12916 14.9837C7.271 14.9901 7.41213 14.9601 7.53915 14.8967L9.20582 14.0633C9.34422 13.9942 9.46063 13.8879 9.54202 13.7563C9.62341 13.6247 9.66657 13.4731 9.66665 13.3183V9.08168C9.66665 8.32168 10.1933 7.67668 10.8783 7.34834C11.758 6.92642 12.5346 6.31701 13.1537 5.56292C13.7727 4.80884 14.2192 3.92837 14.4616 2.98334C14.6875 2.09168 13.9192 1.33334 13 1.33334Z" fill="#4A5565" stroke="#4A5565" stroke-width="2"/>
</svg>
