<svg width="11" height="13" viewBox="0 0 11 13" fill="none" xmlns="http://www.w3.org/2000/svg">
<path d="M0.5 10.9666V4.96663C0.5 4.75552 0.544375 4.55552 0.633125 4.36663C0.721875 4.17775 0.844167 4.02219 1 3.89997L4.75 0.899967C4.96875 0.72219 5.21875 0.633301 5.5 0.633301C5.78125 0.633301 6.03125 0.72219 6.25 0.899967L10 3.89997C10.1562 4.02219 10.2788 4.17775 10.3675 4.36663C10.4563 4.55552 10.5004 4.75552 10.5 4.96663V10.9666C10.5 11.3333 10.3775 11.6473 10.1325 11.9086C9.8875 12.17 9.59333 12.3004 9.25 12.3H7.375C7.19792 12.3 7.04958 12.236 6.93 12.108C6.81042 11.98 6.75042 11.8217 6.75 11.6333V8.29997C6.75 8.11108 6.69 7.95286 6.57 7.8253C6.45 7.69774 6.30167 7.63374 6.125 7.6333H4.875C4.69792 7.6333 4.54958 7.6973 4.43 7.8253C4.31042 7.9533 4.25042 8.11152 4.25 8.29997V11.6333C4.25 11.8222 4.19 11.9806 4.07 12.1086C3.95 12.2366 3.80167 12.3004 3.625 12.3H1.75C1.40625 12.3 1.11208 12.1695 0.8675 11.9086C0.622917 11.6477 0.500417 11.3337 0.5 10.9666Z" fill="#CCCCCC"/>
</svg>
