<svg width="11" height="13" viewBox="0 0 11 13" fill="none" xmlns="http://www.w3.org/2000/svg">
<path d="M0.5 10.8667V4.86666C0.5 4.65555 0.544375 4.45555 0.633125 4.26666C0.721875 4.07777 0.844167 3.92221 1 3.79999L4.75 0.799992C4.96875 0.622214 5.21875 0.533325 5.5 0.533325C5.78125 0.533325 6.03125 0.622214 6.25 0.799992L10 3.79999C10.1562 3.92221 10.2788 4.07777 10.3675 4.26666C10.4563 4.45555 10.5004 4.65555 10.5 4.86666V10.8667C10.5 11.2333 10.3775 11.5473 10.1325 11.8087C9.8875 12.07 9.59333 12.2004 9.25 12.2H7.375C7.19792 12.2 7.04958 12.136 6.93 12.008C6.81042 11.88 6.75042 11.7218 6.75 11.5333V8.19999C6.75 8.0111 6.69 7.85288 6.57 7.72532C6.45 7.59777 6.30167 7.53377 6.125 7.53332H4.875C4.69792 7.53332 4.54958 7.59732 4.43 7.72532C4.31042 7.85332 4.25042 8.01155 4.25 8.19999V11.5333C4.25 11.7222 4.19 11.8807 4.07 12.0087C3.95 12.1367 3.80167 12.2004 3.625 12.2H1.75C1.40625 12.2 1.11208 12.0695 0.8675 11.8087C0.622917 11.5478 0.500417 11.2338 0.5 10.8667Z" fill="#6A727F"/>
</svg>
