<svg width="22" height="22" viewBox="0 0 22 22" fill="none" xmlns="http://www.w3.org/2000/svg">
<path d="M20 0.350098H1.99531C1.17031 0.350098 0.5 1.02979 0.5 1.86416V19.836C0.5 20.6704 1.17031 21.3501 1.99531 21.3501H20C20.825 21.3501 21.5 20.6704 21.5 19.836V1.86416C21.5 1.02979 20.825 0.350098 20 0.350098ZM6.84687 18.3501H3.73438V8.32822H6.85156V18.3501H6.84687ZM5.29062 6.95947C4.29219 6.95947 3.48594 6.14854 3.48594 5.15479C3.48594 4.16104 4.29219 3.3501 5.29062 3.3501C6.28437 3.3501 7.09531 4.16104 7.09531 5.15479C7.09531 6.15322 6.28906 6.95947 5.29062 6.95947ZM18.5141 18.3501H15.4016V13.4751C15.4016 12.3126 15.3781 10.8173 13.7844 10.8173C12.1625 10.8173 11.9141 12.0829 11.9141 13.3907V18.3501H8.80156V8.32822H11.7875V9.69697H11.8297C12.2469 8.90947 13.2641 8.07978 14.7781 8.07978C17.9281 8.07978 18.5141 10.1563 18.5141 12.8563V18.3501Z" fill="white"/>
</svg>
