<svg width="172" height="146" viewBox="0 0 172 146" fill="none" xmlns="http://www.w3.org/2000/svg">
<path fill-rule="evenodd" clip-rule="evenodd" d="M32.5733 71.9393C35.6042 68.6984 37.5387 64.7744 38.1563 60.6143C38.6418 56.4737 37.7465 52.2984 35.5795 48.5973C34.4637 46.693 32.9872 44.9697 31.2133 43.501C29.3846 42.0773 27.421 40.7933 25.344 39.6631C22.3377 40.1664 21.0493 41.236 22.4093 43.1864C23.6815 44.0731 24.8558 45.0631 25.9166 46.1435C27.2885 47.5489 28.2905 49.2031 28.8513 50.9881C29.6547 53.2225 29.9467 55.5748 29.7102 57.9089C29.431 61.375 28.0687 64.7061 25.7734 67.5352C21.7057 72.8079 15.6033 76.6074 8.59489 78.231C7.09176 80.1814 6.59072 81.8173 9.09593 82.4464H9.74013C18.6052 81.6556 26.7827 77.8925 32.5733 71.9393Z" fill="black"/>
<path fill-rule="evenodd" clip-rule="evenodd" d="M125.552 52.4351C127.4 56.2184 130.276 59.5453 133.927 62.1243C138.2 64.9044 143.07 66.8948 148.242 67.9755C152.93 68.9581 157.739 69.4231 162.558 69.3597C164.276 67.7239 163.56 66.151 161.341 64.641C157.535 64.2537 153.789 63.494 150.175 62.376C146.165 61.1061 142.489 59.1373 139.367 56.5876C136.878 54.5599 134.903 52.0947 133.569 49.3522C132.109 46.5131 131.121 43.5043 130.634 40.418C129.869 35.3832 130.634 30.26 132.853 25.5697C133.712 22.4239 132.281 21.543 128.916 22.5497C124.768 27.9698 122.641 34.3908 122.832 40.9214C122.887 44.8775 123.81 48.7871 125.552 52.4351Z" fill="black"/>
<path fill-rule="evenodd" clip-rule="evenodd" d="M172.006 75.9031C171.578 68.2736 170.136 60.7142 167.711 53.3789C162.699 38.2772 151.901 25.163 137.148 16.2581C122.721 7.4115 105.869 2.11171 88.3321 0.906424C68.5185 0.189819 49.1564 6.23113 34.2912 17.7681C19.4753 28.7031 8.52336 43.1323 2.7256 59.356C-0.965005 70.5439 -0.589655 82.4655 3.79926 93.4568C5.74673 98.8627 9.26807 103.727 14.014 107.568C18.76 111.408 24.5658 114.092 30.8555 115.352C31.0039 120.334 32.5794 125.203 35.4364 129.508C40.7057 136.412 48.7672 141.293 57.9833 143.161C70.8853 145.337 84.0934 145.741 97.1361 144.356C103.781 144.007 110.325 142.755 116.534 140.644C120.859 139.067 124.761 136.709 127.986 133.724C132.459 129.236 135.562 123.824 137.005 117.994C137.49 116.188 137.872 114.361 138.15 112.521C144.839 112.502 151.369 110.727 156.903 107.424C163.233 103.708 167.891 98.1681 170.073 91.7581C171.654 86.594 172.306 81.2443 172.006 75.9031ZM130.849 116.421C129.454 121.153 126.693 125.487 122.832 129.005C120.174 131.168 117.062 132.857 113.67 133.975C108.177 135.609 102.433 136.5 96.6351 136.618C84.4392 137.917 72.0926 137.642 59.9875 135.8C52.498 134.593 45.7735 131.011 41.0911 125.733C38.4937 122.204 36.9434 118.159 36.5817 113.968C35.9156 107.136 36.0596 100.262 37.0111 93.4568C46.4367 87.1605 57.3842 82.8549 69.0062 80.8735C79.3402 78.9269 89.9967 78.6922 100.429 80.1814C112.604 81.7376 123.984 86.4218 133.139 93.6456C133.139 93.6456 133.139 93.6456 133.569 93.6456C134.099 101.321 133.155 109.021 130.777 116.421H130.849ZM164.276 90.0593C162.664 95.4386 158.936 100.142 153.754 103.335C149.33 106.061 144.119 107.632 138.723 107.865C139.076 102.81 138.957 97.739 138.365 92.7018C129.115 82.6074 116.114 75.7015 101.645 73.1977C95.9589 72.1083 90.1406 71.6434 84.3238 71.8135C78.5185 71.9462 72.7518 72.6854 67.1452 74.0156C54.0784 77.1771 42.1828 83.2946 32.6449 91.7581C31.4996 98.2558 30.8539 104.814 30.7123 111.388C25.5809 109.984 20.9293 107.477 17.1795 104.093C13.4297 100.709 10.7004 96.5557 9.23914 92.0098C5.85409 81.9916 5.85409 71.3246 9.23914 61.3064C15.2798 46.5231 25.7982 33.4704 39.6595 23.5564C52.9709 13.3758 70.1996 8.0427 87.8311 8.64517C116.033 10.3439 151.32 26.8281 160.983 55.2664C163.409 62.1239 164.992 69.1898 165.707 76.3435C165.982 80.9557 165.475 85.5781 164.204 90.0593H164.276Z" fill="black"/>
<path fill-rule="evenodd" clip-rule="evenodd" d="M69.5789 18.5861H68.72C66.3692 19.0651 64.1051 19.8273 61.9917 20.8511C58.8255 22.5682 56.3289 25.0919 54.834 28.0865C53.448 30.4166 52.8277 33.04 53.0426 35.6626C53.2575 38.2852 54.2992 40.8033 56.0508 42.9348C57.8627 45.0303 60.2757 46.6648 63.0427 47.6708C65.8097 48.6769 68.8313 49.0183 71.7978 48.6602C75.334 48.2434 78.6874 47.0296 81.5323 45.1369C84.5237 43.1924 86.7305 40.4591 87.8311 37.3352C88.6092 34.9263 88.7162 32.3881 88.1431 29.9351C87.57 27.4821 86.3337 25.1864 84.5385 23.2419C82.7874 21.3164 80.4583 19.86 77.8147 19.0372C75.1711 18.2144 72.3183 18.0582 69.5789 18.5861ZM80.6018 35.1331C79.739 36.7364 78.3732 38.0898 76.665 39.034C74.9635 40.2452 72.9469 41.0666 70.7957 41.4248C69.2753 41.6223 67.7229 41.4777 66.2834 41.0045C64.8438 40.5314 63.5643 39.7452 62.5643 38.7194C61.5284 37.6384 60.8315 36.3384 60.5428 34.9479C60.254 33.5575 60.3834 32.1249 60.918 30.7919C61.636 28.6907 63.0885 26.8416 65.0695 25.5069C66.5159 24.5775 68.1069 23.8359 69.7936 23.3048H70.5094C72.2455 23.0806 74.0184 23.2994 75.6172 23.9352C77.216 24.5709 78.5734 25.5969 79.5281 26.8911C80.4095 28.1022 80.9644 29.4744 81.1505 30.9028C81.3366 32.3313 81.1489 33.7782 80.6018 35.1331Z" fill="black"/>
<path fill-rule="evenodd" clip-rule="evenodd" d="M61.1326 108.808C61.1326 106.984 61.92 105.348 62.2063 103.461C62.2767 102.707 62.2767 101.949 62.2063 101.196C62.2774 100.421 62.2774 99.6424 62.2063 98.8676C62.2063 96.9172 61.2042 95.2185 60.7032 93.331C60.7226 93.0747 60.6842 92.8176 60.5903 92.5745C60.4964 92.3313 60.3488 92.1068 60.1559 91.9139C59.9631 91.7209 59.7288 91.5634 59.4665 91.4503C59.2042 91.3372 58.919 91.2707 58.6274 91.2547C58.0312 91.2197 57.4429 91.3909 56.9883 91.7318C56.5336 92.0727 56.2485 92.5562 56.1938 93.0793C55.3054 94.8762 54.5639 96.7264 53.9749 98.616C53.8655 99.4521 53.8655 100.297 53.9749 101.133C53.9039 101.949 53.9039 102.77 53.9749 103.586C54.434 105.56 55.0804 107.496 55.9075 109.375C56.0136 109.959 56.3686 110.485 56.9004 110.847C57.4321 111.21 58.1008 111.381 58.7706 111.325C59.1161 111.302 59.4526 111.217 59.7601 111.077C60.0677 110.937 60.3398 110.743 60.5603 110.508C60.7808 110.273 60.9452 110.002 61.0435 109.71C61.1418 109.418 61.1722 109.111 61.1326 108.808Z" fill="black"/>
<path fill-rule="evenodd" clip-rule="evenodd" d="M107.085 92.7018C107.146 92.1772 106.97 91.6526 106.595 91.2408C106.22 90.829 105.677 90.5629 105.081 90.4997C104.79 90.4737 104.495 90.4987 104.214 90.5734C103.934 90.648 103.673 90.7708 103.447 90.9346C103.22 91.0984 103.033 91.3 102.896 91.5277C102.759 91.7554 102.674 92.0048 102.648 92.2614C101.672 93.9394 100.858 95.6862 100.214 97.4835C99.9955 98.2259 99.8518 98.9839 99.7844 99.7485V102.076C100.098 103.937 100.601 105.769 101.288 107.55C101.277 107.847 101.337 108.143 101.464 108.419C101.59 108.694 101.781 108.943 102.024 109.151C102.266 109.358 102.555 109.518 102.872 109.622C103.189 109.725 103.527 109.77 103.864 109.752C104.542 109.72 105.179 109.461 105.645 109.027C106.111 108.594 106.371 108.021 106.37 107.424C106.799 105.663 107.443 104.153 107.873 102.391C108.085 101.669 108.229 100.932 108.302 100.189C108.41 99.4789 108.41 98.7596 108.302 98.0497C107.999 96.2502 107.593 94.4653 107.085 92.7018Z" fill="black"/>
<path fill-rule="evenodd" clip-rule="evenodd" d="M99.2119 119.253C95.5376 121.291 91.3693 122.541 87.0438 122.902C85.2321 122.996 83.4156 122.996 81.6039 122.902H76.164C71.7965 122.688 67.5397 121.613 63.7096 119.756C63.4793 119.595 63.2151 119.475 62.9322 119.404C62.6493 119.332 62.3532 119.311 62.0607 119.34C61.7683 119.369 61.4853 119.449 61.2278 119.574C60.9703 119.699 60.7435 119.868 60.5602 120.071C60.3769 120.273 60.2407 120.505 60.1595 120.754C60.0783 121.002 60.0536 121.263 60.0868 121.52C60.1201 121.777 60.2106 122.026 60.3532 122.252C60.4958 122.478 60.6878 122.678 60.918 122.839C64.6941 126.291 69.4707 128.771 74.7325 130.011C77.0757 130.506 79.4807 130.738 81.8902 130.703C84.3093 130.682 86.7152 130.386 89.0479 129.823C94.3069 128.533 99.0928 126.061 102.934 122.65C103.172 122.445 103.361 122.2 103.49 121.93C103.619 121.66 103.686 121.37 103.686 121.077C103.686 120.784 103.619 120.494 103.49 120.224C103.361 119.954 103.172 119.709 102.934 119.504C102.713 119.266 102.44 119.07 102.131 118.928C101.821 118.786 101.482 118.701 101.134 118.677C100.786 118.654 100.436 118.692 100.106 118.791C99.7754 118.89 99.4713 119.047 99.2119 119.253Z" fill="black"/>
</svg>
