<svg width="20" height="17" viewBox="0 0 20 17" fill="none" xmlns="http://www.w3.org/2000/svg">
<path d="M17.9441 4.77647C17.9568 4.95413 17.9568 5.13183 17.9568 5.30948C17.9568 10.7282 13.8325 16.9719 6.29441 16.9719C3.97207 16.9719 1.81473 16.2993 0 15.1318C0.329961 15.1699 0.647187 15.1826 0.989844 15.1826C2.90605 15.1826 4.67004 14.5354 6.07867 13.4313C4.27664 13.3932 2.76648 12.213 2.24617 10.5887C2.5 10.6267 2.75379 10.6521 3.02031 10.6521C3.38832 10.6521 3.75637 10.6013 4.09898 10.5125C2.22082 10.1318 0.812148 8.48206 0.812148 6.48968V6.43894C1.35781 6.74351 1.99238 6.93386 2.66492 6.95921C1.56086 6.22315 0.837539 4.96683 0.837539 3.5455C0.837539 2.78409 1.04055 2.08612 1.3959 1.47698C3.41367 3.96429 6.44668 5.58862 9.84766 5.76632C9.78422 5.46175 9.74613 5.14452 9.74613 4.82726C9.74613 2.56835 11.5736 0.728271 13.8451 0.728271C15.0253 0.728271 16.0913 1.22319 16.84 2.02269C17.7664 1.84503 18.6547 1.50237 19.4416 1.03284C19.137 1.98464 18.4898 2.78413 17.6395 3.29171C18.4644 3.20292 19.2639 2.97444 19.9999 2.65722C19.4416 3.46937 18.7436 4.19269 17.9441 4.77647Z" fill="white"/>
</svg>
