<svg width="22" height="22" viewBox="0 0 22 22" fill="none" xmlns="http://www.w3.org/2000/svg">
<path d="M18.3547 3.40166C16.3906 1.43291 13.775 0.350098 10.9953 0.350098C5.25781 0.350098 0.589062 5.01885 0.589062 10.7563C0.589062 12.5892 1.06719 14.3798 1.97656 15.9595L0.5 21.3501L6.01719 19.9017C7.53594 20.7313 9.24687 21.1673 10.9906 21.1673H10.9953C16.7281 21.1673 21.5 16.4985 21.5 10.761C21.5 7.98135 20.3188 5.37041 18.3547 3.40166ZM10.9953 19.4142C9.43906 19.4142 7.91562 18.997 6.58906 18.2095L6.275 18.022L3.00313 18.8798L3.875 15.6876L3.66875 15.3595C2.80156 13.9813 2.34688 12.3923 2.34688 10.7563C2.34688 5.98916 6.22812 2.10791 11 2.10791C13.3109 2.10791 15.4812 3.00791 17.1125 4.64385C18.7437 6.27979 19.7469 8.4501 19.7422 10.761C19.7422 15.5329 15.7625 19.4142 10.9953 19.4142ZM15.7391 12.936C15.4813 12.8048 14.2016 12.1767 13.9625 12.0923C13.7234 12.0032 13.55 11.961 13.3766 12.2235C13.2031 12.486 12.7063 13.0673 12.5516 13.2454C12.4016 13.4188 12.2469 13.4423 11.9891 13.311C10.4609 12.547 9.45781 11.947 8.45 10.2173C8.18281 9.75791 8.71719 9.79072 9.21406 8.79697C9.29844 8.62354 9.25625 8.47354 9.19062 8.34229C9.125 8.21104 8.60469 6.93135 8.38906 6.41104C8.17813 5.90479 7.9625 5.9751 7.80313 5.96572C7.65313 5.95635 7.47969 5.95635 7.30625 5.95635C7.13281 5.95635 6.85156 6.02197 6.6125 6.27979C6.37344 6.54228 5.70312 7.17041 5.70312 8.4501C5.70312 9.72978 6.63594 10.9673 6.7625 11.1407C6.89375 11.3142 8.59531 13.9392 11.2062 15.0688C12.8562 15.7813 13.5031 15.8423 14.3281 15.7204C14.8297 15.6454 15.8656 15.0923 16.0812 14.4829C16.2969 13.8735 16.2969 13.3532 16.2313 13.2454C16.1703 13.1282 15.9969 13.0626 15.7391 12.936Z" fill="white"/>
</svg>
