<svg width="136" height="32" viewBox="0 0 136 32" fill="none" xmlns="http://www.w3.org/2000/svg">
<path d="M0 0H112C125.255 0 136 10.7452 136 24V32H24C10.7452 32 0 21.2548 0 8V0Z" fill="#F9D783"/>
<path d="M34.4609 12.848C34.3928 12.2429 34.1115 11.7741 33.6172 11.4418C33.1229 11.1051 32.5007 10.9368 31.7507 10.9368C31.2138 10.9368 30.7493 11.022 30.3572 11.1925C29.9652 11.3587 29.6605 11.5888 29.4432 11.8828C29.2301 12.1726 29.1236 12.5028 29.1236 12.8736C29.1236 13.1847 29.196 13.4531 29.3409 13.679C29.4901 13.9048 29.6839 14.0945 29.9226 14.2479C30.1655 14.397 30.4254 14.5227 30.7024 14.625C30.9794 14.723 31.2457 14.804 31.5014 14.8679L32.7798 15.2003C33.1974 15.3026 33.6257 15.4411 34.0646 15.6158C34.5036 15.7905 34.9105 16.0206 35.2855 16.3061C35.6605 16.5916 35.9631 16.9453 36.1932 17.3672C36.4276 17.7891 36.5447 18.294 36.5447 18.8821C36.5447 19.6236 36.353 20.282 35.9695 20.8572C35.5902 21.4325 35.0384 21.8864 34.3139 22.2188C33.5938 22.5511 32.7223 22.7173 31.6996 22.7173C30.7195 22.7173 29.8714 22.5618 29.1555 22.2507C28.4396 21.9396 27.8793 21.4986 27.4744 20.9276C27.0696 20.3523 26.8459 19.6705 26.8033 18.8821H28.7848C28.8232 19.3551 28.9766 19.7493 29.245 20.0646C29.5178 20.3757 29.8651 20.608 30.2869 20.7614C30.7131 20.9105 31.1797 20.9851 31.6868 20.9851C32.245 20.9851 32.7415 20.8977 33.1761 20.723C33.6151 20.544 33.9602 20.2969 34.2116 19.9815C34.4631 19.6619 34.5888 19.2891 34.5888 18.8629C34.5888 18.4751 34.478 18.1577 34.2564 17.9105C34.0391 17.6634 33.7429 17.4588 33.3679 17.2969C32.9972 17.1349 32.5774 16.9922 32.1087 16.8686L30.5618 16.4467C29.5135 16.1612 28.6825 15.7415 28.0689 15.1875C27.4595 14.6335 27.1548 13.9006 27.1548 12.9886C27.1548 12.2344 27.3594 11.576 27.7685 11.0135C28.1776 10.451 28.7315 10.0142 29.4304 9.70312C30.1293 9.38778 30.9176 9.23011 31.7955 9.23011C32.6818 9.23011 33.4638 9.38565 34.1413 9.69673C34.8232 10.0078 35.3601 10.4361 35.7521 10.9815C36.1442 11.5227 36.3487 12.1449 36.3658 12.848H34.4609ZM41.6088 22.7173C40.9867 22.7173 40.4242 22.6023 39.9213 22.3722C39.4185 22.1378 39.0201 21.799 38.726 21.3558C38.4363 20.9126 38.2914 20.3693 38.2914 19.7259C38.2914 19.1719 38.3979 18.7159 38.611 18.358C38.824 18 39.1117 17.7166 39.4739 17.5078C39.8361 17.299 40.2409 17.1413 40.6884 17.0348C41.1358 16.9283 41.5918 16.8473 42.0563 16.7919C42.6444 16.7237 43.1216 16.6683 43.4881 16.6257C43.8546 16.5788 44.1209 16.5043 44.2871 16.402C44.4533 16.2997 44.5364 16.1335 44.5364 15.9034V15.8587C44.5364 15.3004 44.3787 14.8679 44.0634 14.5611C43.7523 14.2543 43.2878 14.1009 42.6699 14.1009C42.0265 14.1009 41.5194 14.2436 41.1486 14.5291C40.7821 14.8104 40.5286 15.1236 40.388 15.4688L38.5918 15.0597C38.8049 14.4631 39.1159 13.9815 39.525 13.6151C39.9384 13.2443 40.4135 12.9759 40.9505 12.8097C41.4874 12.6392 42.052 12.554 42.6444 12.554C43.0364 12.554 43.4519 12.6009 43.8908 12.6946C44.334 12.7841 44.7473 12.9503 45.1309 13.1932C45.5186 13.4361 45.8361 13.7834 46.0833 14.2351C46.3304 14.6825 46.454 15.2642 46.454 15.9801V22.5H44.5875V21.1577H44.5108C44.3873 21.4048 44.2019 21.6477 43.9547 21.8864C43.7076 22.125 43.3901 22.3232 43.0023 22.4808C42.6145 22.6385 42.15 22.7173 41.6088 22.7173ZM42.0243 21.1832C42.5527 21.1832 43.0044 21.0788 43.3794 20.87C43.7587 20.6612 44.0463 20.3885 44.2424 20.0518C44.4426 19.7109 44.5428 19.3466 44.5428 18.9588V17.6932C44.4746 17.7614 44.3425 17.8253 44.1465 17.8849C43.9547 17.9403 43.7353 17.9893 43.4881 18.032C43.2409 18.0703 43.0002 18.1065 42.7658 18.1406C42.5314 18.1705 42.3354 18.196 42.1777 18.2173C41.807 18.2642 41.4682 18.343 41.1614 18.4538C40.8588 18.5646 40.6159 18.7244 40.4327 18.9332C40.2537 19.1378 40.1642 19.4105 40.1642 19.7514C40.1642 20.2244 40.339 20.5824 40.6884 20.8253C41.0378 21.0639 41.4831 21.1832 42.0243 21.1832ZM57.0472 12.6818L53.4869 22.5H51.4414L47.8746 12.6818H49.9265L52.413 20.2372H52.5153L54.9954 12.6818H57.0472ZM62.7409 22.6982C61.7736 22.6982 60.9405 22.4915 60.2417 22.0781C59.5471 21.6605 59.0101 21.0746 58.6309 20.3203C58.2559 19.5618 58.0684 18.6733 58.0684 17.6548C58.0684 16.6491 58.2559 15.7628 58.6309 14.9957C59.0101 14.2287 59.5385 13.63 60.2161 13.1996C60.8979 12.7692 61.6948 12.554 62.6067 12.554C63.1607 12.554 63.6976 12.6456 64.2175 12.8288C64.7374 13.0121 65.204 13.2997 65.6174 13.6918C66.0307 14.0838 66.3567 14.593 66.5953 15.2195C66.834 15.8416 66.9533 16.598 66.9533 17.4886V18.1662H59.1486V16.7344H65.0804C65.0804 16.2315 64.9782 15.7862 64.7736 15.3984C64.5691 15.0064 64.2814 14.6974 63.9107 14.4716C63.5442 14.2457 63.1138 14.1328 62.6195 14.1328C62.0826 14.1328 61.6138 14.2649 61.2132 14.5291C60.8169 14.7891 60.5101 15.13 60.2928 15.5518C60.0797 15.9695 59.9732 16.4233 59.9732 16.9134V18.032C59.9732 18.6882 60.0882 19.2464 60.3184 19.7067C60.5527 20.1669 60.8787 20.5185 61.2963 20.7614C61.714 21 62.2019 21.1193 62.7601 21.1193C63.1223 21.1193 63.4526 21.0682 63.7509 20.9659C64.0492 20.8594 64.307 20.7017 64.5243 20.4929C64.7417 20.2841 64.9078 20.0263 65.0229 19.7195L66.8319 20.0455C66.687 20.5781 66.427 21.0447 66.052 21.4453C65.6813 21.8416 65.2147 22.1506 64.6522 22.3722C64.0939 22.5895 63.4569 22.6982 62.7409 22.6982ZM73.812 22.5V21.0682L78.2417 16.4787C78.7147 15.9801 79.1046 15.5433 79.4114 15.1683C79.7225 14.7891 79.9547 14.429 80.1081 14.0881C80.2615 13.7472 80.3382 13.3849 80.3382 13.0014C80.3382 12.5668 80.236 12.1918 80.0314 11.8764C79.8269 11.5568 79.5478 11.3118 79.1941 11.1413C78.8404 10.9666 78.4419 10.8793 77.9988 10.8793C77.53 10.8793 77.1209 10.9751 76.7715 11.1669C76.4221 11.3587 76.1536 11.6293 75.9661 11.9787C75.7786 12.3281 75.6848 12.7372 75.6848 13.206H73.7992C73.7992 12.4091 73.9824 11.7124 74.3489 11.1158C74.7154 10.5192 75.2182 10.0568 75.8574 9.72869C76.4966 9.39631 77.2232 9.23011 78.0371 9.23011C78.8596 9.23011 79.584 9.39418 80.2104 9.7223C80.8411 10.0462 81.3333 10.4893 81.687 11.0518C82.0407 11.6101 82.2175 12.2408 82.2175 12.9439C82.2175 13.4297 82.1259 13.9048 81.9426 14.3693C81.7637 14.8338 81.4505 15.3516 81.003 15.9226C80.5556 16.4893 79.9334 17.1776 79.1365 17.9872L76.535 20.7102V20.8061H82.4284V22.5H73.812ZM89.4086 22.7173C88.3986 22.7131 87.5357 22.4467 86.8198 21.9183C86.1039 21.3899 85.5563 20.6207 85.177 19.6108C84.7978 18.6009 84.6081 17.3842 84.6081 15.9609C84.6081 14.5419 84.7978 13.3295 85.177 12.3239C85.5605 11.3182 86.1103 10.5511 86.8262 10.0227C87.5463 9.49432 88.4071 9.23011 89.4086 9.23011C90.41 9.23011 91.2686 9.49645 91.9846 10.0291C92.7005 10.5575 93.248 11.3246 93.6273 12.3303C94.0108 13.3317 94.2026 14.5419 94.2026 15.9609C94.2026 17.3885 94.013 18.6072 93.6337 19.6172C93.2544 20.6229 92.7069 21.392 91.9909 21.9247C91.275 22.4531 90.4142 22.7173 89.4086 22.7173ZM89.4086 21.0107C90.2949 21.0107 90.9874 20.5781 91.486 19.7131C91.9888 18.848 92.2402 17.5973 92.2402 15.9609C92.2402 14.8743 92.1252 13.956 91.8951 13.206C91.6692 12.4517 91.3432 11.8807 90.9171 11.4929C90.4952 11.1009 89.9924 10.9048 89.4086 10.9048C88.5265 10.9048 87.834 11.3395 87.3311 12.2088C86.8283 13.0781 86.5748 14.3288 86.5705 15.9609C86.5705 17.0518 86.6834 17.9744 86.9093 18.7287C87.1394 19.4787 87.4654 20.0476 87.8873 20.4354C88.3091 20.8189 88.8162 21.0107 89.4086 21.0107ZM103.303 20.0455V19.3551C103.303 18.8608 103.406 18.4091 103.61 18C103.819 17.5866 104.121 17.2564 104.518 17.0092C104.918 16.7578 105.402 16.6321 105.969 16.6321C106.548 16.6321 107.034 16.7557 107.426 17.0028C107.818 17.25 108.114 17.5803 108.315 17.9936C108.519 18.407 108.621 18.8608 108.621 19.3551V20.0455C108.621 20.5398 108.519 20.9936 108.315 21.407C108.11 21.8161 107.81 22.1463 107.413 22.3977C107.021 22.6449 106.54 22.7685 105.969 22.7685C105.393 22.7685 104.908 22.6449 104.511 22.3977C104.115 22.1463 103.815 21.8161 103.61 21.407C103.406 20.9936 103.303 20.5398 103.303 20.0455ZM104.793 19.3551V20.0455C104.793 20.4119 104.88 20.7443 105.055 21.0426C105.229 21.3409 105.534 21.4901 105.969 21.4901C106.399 21.4901 106.7 21.3409 106.87 21.0426C107.04 20.7443 107.126 20.4119 107.126 20.0455V19.3551C107.126 18.9886 107.043 18.6562 106.876 18.358C106.714 18.0597 106.412 17.9105 105.969 17.9105C105.543 17.9105 105.24 18.0597 105.061 18.358C104.882 18.6562 104.793 18.9886 104.793 19.3551ZM96.7195 12.554V11.8636C96.7195 11.3693 96.8217 10.9155 97.0263 10.5021C97.2351 10.0888 97.5376 9.75852 97.9339 9.51136C98.3345 9.2642 98.8182 9.14062 99.3849 9.14062C99.9645 9.14062 100.45 9.2642 100.842 9.51136C101.234 9.75852 101.531 10.0888 101.731 10.5021C101.931 10.9155 102.031 11.3693 102.031 11.8636V12.554C102.031 13.0483 101.929 13.5021 101.724 13.9155C101.524 14.3246 101.226 14.6548 100.83 14.9062C100.438 15.1534 99.956 15.277 99.3849 15.277C98.8054 15.277 98.3175 15.1534 97.9212 14.9062C97.5291 14.6548 97.2308 14.3246 97.0263 13.9155C96.8217 13.5021 96.7195 13.0483 96.7195 12.554ZM98.2152 11.8636V12.554C98.2152 12.9205 98.3004 13.2528 98.4709 13.5511C98.6456 13.8494 98.9503 13.9986 99.3849 13.9986C99.8111 13.9986 100.109 13.8494 100.28 13.5511C100.455 13.2528 100.542 12.9205 100.542 12.554V11.8636C100.542 11.4972 100.459 11.1648 100.293 10.8665C100.126 10.5682 99.8239 10.419 99.3849 10.419C98.9588 10.419 98.6563 10.5682 98.4773 10.8665C98.3026 11.1648 98.2152 11.4972 98.2152 11.8636ZM97.3267 22.5L106.327 9.40909H107.854L98.8544 22.5H97.3267Z" fill="black"/>
</svg>
