<svg width="18" height="18" viewBox="0 0 18 18" fill="none" xmlns="http://www.w3.org/2000/svg">
<g clip-path="url(#clip0_63_376)">
<mask id="mask0_63_376" style="mask-type:luminance" maskUnits="userSpaceOnUse" x="0" y="0" width="18" height="18">
<path d="M9 16.5C13.1422 16.5 16.5 13.1422 16.5 9C16.5 4.85775 13.1422 1.5 9 1.5C4.85775 1.5 1.5 4.85775 1.5 9C1.5 13.1422 4.85775 16.5 9 16.5Z" fill="white" stroke="white" stroke-width="1.5" stroke-linecap="round" stroke-linejoin="round"/>
<path d="M12.5784 10.125C12.1006 11.6464 10.6794 12.75 9.00012 12.75C7.32087 12.75 5.89963 11.6464 5.42188 10.125V12.375M12.5784 5.625V7.875C12.1006 6.35362 10.6794 5.25 9.00012 5.25C7.32087 5.25 5.89963 6.35362 5.42188 7.875" stroke="black" stroke-width="1.5" stroke-linecap="round" stroke-linejoin="round"/>
</mask>
<g mask="url(#mask0_63_376)">
<path d="M0 0H18V18H0V0Z" fill="#FBBF24"/>
</g>
</g>
<defs>
<clipPath id="clip0_63_376">
<rect width="18" height="18" fill="white"/>
</clipPath>
</defs>
</svg>
