<svg width="464" height="338" viewBox="0 0 464 338" fill="none" xmlns="http://www.w3.org/2000/svg">
<g clip-path="url(#clip0_107_1960)">
<path fill-rule="evenodd" clip-rule="evenodd" d="M305.319 189.12C298.998 178.338 293.745 167.057 289.625 155.413C287.649 149.653 286.021 143.787 284.394 137.92C282.766 132.053 280.557 123.093 279.279 115.52C281.379 114.635 283.4 113.601 285.324 112.427C296.88 106.456 305.488 96.6328 309.362 84.9947C313.237 73.3566 312.08 60.7966 306.132 49.92C282.882 5.22662 205.576 -4.62464e-05 195.23 60.8C193.087 71.2693 194.65 82.0931 199.691 91.6889C204.732 101.285 212.986 109.149 223.246 114.133C220.34 124.8 217.317 135.467 214.876 146.667C213.249 154.347 211.854 162.027 209.761 169.493C207.638 177.246 204.678 184.785 200.926 192C200.459 191.978 199.992 192.042 199.553 192.188C199.114 192.335 198.711 192.561 198.369 192.853C193.763 196.132 190.126 200.417 187.79 205.318C185.455 210.218 184.496 215.578 185 220.907C186.048 226.389 188.637 231.526 192.511 235.81C196.384 240.093 201.408 243.376 207.087 245.333C221.335 250.997 236.667 254.007 252.192 254.187C268.222 254.218 283.864 249.67 296.949 241.173C306.952 235.034 314.342 225.917 317.874 215.36C318.355 211.021 317.722 206.638 316.026 202.563C314.331 198.488 311.619 194.834 308.109 191.893C307.295 191.253 307.76 192 305.319 189.12ZM205.46 62.08C212.202 7.25329 278 15.5733 296.251 53.3333C300.763 62.0998 301.381 72.133 297.975 81.3102C294.568 90.4874 287.405 98.0889 278 102.507C274.963 104.247 271.727 105.678 268.351 106.773C264.999 107.857 261.531 108.608 258.005 109.013C254.646 109.386 251.25 109.386 247.891 109.013C244.412 108.62 240.984 107.905 237.661 106.88C227.224 104.361 218.166 98.3964 212.225 90.1297C206.283 81.863 203.874 71.8752 205.46 62.08ZM223.944 163.947C226.062 157.178 227.54 150.255 228.361 143.253C229.524 134.507 229.756 125.653 230.337 116.693L233.825 118.08C237.889 119.393 242.1 120.287 246.38 120.747C250.782 121.227 255.23 121.227 259.632 120.747C263.584 120.326 267.479 119.54 271.257 118.4C270.885 125.517 271.118 132.65 271.955 139.733C272.594 143.803 273.526 147.83 274.745 151.787C276.018 155.751 277.572 159.634 279.395 163.413C284.872 173.897 291.452 183.864 299.041 193.173C298.504 193.268 297.997 193.47 297.555 193.765C297.113 194.06 296.747 194.441 296.484 194.88C294.656 197.376 292.23 199.456 289.392 200.96C284.627 203.317 279.488 204.972 274.164 205.867C267.264 207.364 260.211 208.187 253.122 208.32C245.866 208.56 238.605 207.987 231.5 206.613C222.304 205.01 213.586 201.629 205.925 196.693C205.925 196.693 206.622 196.693 206.855 195.947C214.451 186.226 220.227 175.411 223.944 163.947ZM309.155 213.333C305.589 221.557 299.012 228.383 290.555 232.64C279.008 239.17 265.636 242.469 252.076 242.133C238.205 242.113 224.454 239.763 211.505 235.2C207.392 234.198 203.637 232.222 200.618 229.47C197.599 226.718 195.42 223.287 194.3 219.52C193.727 215.994 194.014 212.395 195.14 208.982C196.265 205.57 198.202 202.429 200.81 199.787C200.962 200.332 201.239 200.841 201.624 201.28C211.154 210.091 223.271 216.169 236.499 218.773C243.191 220.02 250.054 220.307 256.842 219.627C263.584 219.014 270.22 217.653 276.605 215.573C282.731 213.714 288.498 210.978 293.694 207.467C297.469 205.025 300.476 201.714 302.412 197.867C304.609 199.898 306.339 202.314 307.497 204.971C308.655 207.628 309.219 210.472 309.155 213.333Z" fill="black"/>
<path fill-rule="evenodd" clip-rule="evenodd" d="M461.326 53.3332C460.844 52.7831 460.298 52.2824 459.699 51.8398C457.723 50.5598 452.375 47.7865 451.91 47.4665L423.429 30.6132C414.943 25.3865 406.921 19.9465 398.319 14.5065C392.343 10.9193 385.996 7.88234 379.37 5.43984C375.595 4.05984 371.709 2.95421 367.745 2.13317C365.593 1.76811 363.387 1.76811 361.235 2.13317C358.551 2.67907 355.967 3.5772 353.563 4.79984C348.796 7.25317 343.914 10.7732 340.31 12.5865L314.503 27.0932C314.109 27.2928 313.764 27.5625 313.486 27.8864C313.208 28.2104 313.003 28.582 312.884 28.9795C312.765 29.377 312.734 29.7924 312.792 30.2011C312.85 30.6099 312.997 31.0039 313.224 31.3598C313.43 31.717 313.713 32.032 314.055 32.2859C314.398 32.5398 314.793 32.7273 315.217 32.837C315.641 32.9467 316.085 32.9763 316.521 32.9241C316.958 32.8719 317.379 32.7389 317.758 32.5332L344.379 19.1998C348.099 17.4932 353.214 14.1865 357.98 12.0532C359.53 11.3857 361.173 10.919 362.863 10.6665C364.327 10.6292 365.787 10.8463 367.164 11.3065C369.972 12.2057 372.727 13.2382 375.418 14.3998C381.226 16.8835 386.756 19.8845 391.925 23.3598C400.179 28.6932 407.851 34.7732 416.105 40.2132L444.703 57.5998L446.33 58.8798C445.514 59.2402 444.736 59.6686 444.005 60.1598C440.752 62.3807 437.377 64.4457 433.891 66.3465C428.428 69.3332 422.848 71.9998 417.268 74.5598L377.045 92.1598C373.79 93.5465 370.186 95.6798 366.583 97.0665C364.873 97.7875 362.998 98.1169 361.119 98.0265C357.853 97.7653 354.644 97.0831 351.586 95.9998C343.914 93.2265 340.891 88.7465 329.383 84.6932C328.425 84.3752 327.371 84.4085 326.44 84.7861C325.509 85.1636 324.772 85.8563 324.384 86.7198C324.197 87.1537 324.106 87.6174 324.116 88.0839C324.126 88.5504 324.237 89.0105 324.442 89.4373C324.648 89.8641 324.944 90.2491 325.313 90.57C325.682 90.8909 326.117 91.1413 326.593 91.3065C338.218 95.7865 340.659 100.266 348.215 103.36C351.778 104.867 355.525 105.977 359.375 106.666C358.678 115.413 357.864 124.16 357.748 133.013V144.96C357.748 149.013 358.329 152.853 358.678 156.906C359.608 166.186 360.886 170.56 361.816 179.733C361.816 180.667 362.221 181.562 362.94 182.222C363.659 182.882 364.635 183.253 365.653 183.253C366.67 183.253 367.646 182.882 368.365 182.222C369.085 181.562 369.489 180.667 369.489 179.733C370.07 170.453 370.768 165.973 370.884 156.586V144.533C370.884 140.48 370.884 136.533 370.07 132.586C369.14 123.733 367.513 115.093 366.35 106.347H367.048C371.608 104.838 376.072 103.093 380.416 101.12L421.801 84.9065C427.73 82.3465 433.426 79.7865 439.704 76.7998C443.742 74.7678 447.626 72.4871 451.329 69.9732L453.886 68.2665C452.026 75.4132 450.166 82.6665 448.539 89.5998C446.214 100.906 444.121 112.213 442.494 123.733L440.75 140.693C440.447 141.71 440.214 142.743 440.053 143.786C435.519 147.2 430.636 150.4 425.754 153.386C411.804 162.133 396.924 169.813 382.974 178.24C379.021 180.693 374.139 184.96 368.791 187.84C366.529 189.413 363.717 190.171 360.886 189.973C356.362 189.374 351.945 188.226 347.75 186.56C341.007 182.806 333.882 179.663 326.476 177.173C326.003 177.002 325.498 176.918 324.99 176.927C324.481 176.936 323.98 177.038 323.515 177.227C323.05 177.415 322.63 177.687 322.28 178.026C321.931 178.364 321.658 178.763 321.478 179.2C321.138 180.092 321.19 181.07 321.625 181.927C322.059 182.783 322.84 183.45 323.803 183.786C338.45 189.226 339.148 192.426 347.75 195.626C351.554 196.901 355.435 197.969 359.375 198.826C363.302 199.487 367.355 199.041 371 197.546C377.466 194.515 383.614 190.944 389.368 186.88C401.806 180.053 414.826 173.866 427.149 166.826C435.66 162.053 443.746 156.667 451.329 150.72C452.477 149.748 453.286 148.486 453.654 147.093C453.824 145.176 453.824 143.25 453.654 141.333L454.7 124.373C455.514 113.066 456.676 101.866 458.188 90.5598C459.699 79.2532 461.675 68.0532 463.884 56.9598C463.986 56.5671 464 56.1594 463.926 55.7615C463.851 55.3636 463.689 54.9836 463.45 54.6446C463.211 54.3056 462.9 54.0146 462.535 53.7892C462.17 53.5638 461.759 53.4087 461.326 53.3332Z" fill="black"/>
<path fill-rule="evenodd" clip-rule="evenodd" d="M353.563 66.5596C355.186 67.066 356.861 67.4233 358.561 67.6263C368.252 68.1071 377.777 65.1685 385.182 59.413C399.132 45.333 363.792 28.1596 343.216 40.213C341.003 41.3584 339.172 43.0369 337.923 45.0671C336.673 47.0973 336.051 49.4022 336.125 51.733C336.125 55.893 339.613 61.013 348.68 64.9596C350.264 65.5992 351.895 66.1339 353.563 66.5596ZM357.747 45.2263C374.72 40.853 376.58 50.0263 379.486 50.9863C379.503 51.3466 379.416 51.7047 379.232 52.0234C379.048 52.3422 378.774 52.6102 378.44 52.7996C377.12 53.7254 375.621 54.4131 374.023 54.8263C369.757 56.2931 365.145 56.6979 360.654 55.9996L354.028 53.973C352.577 53.3384 351.211 52.5509 349.959 51.6263C349.959 51.6263 348.564 51.093 348.796 50.6663C349.815 49.2763 351.137 48.0946 352.677 47.1952C354.217 46.2957 355.944 45.6981 357.747 45.4396V45.2263Z" fill="black"/>
<path fill-rule="evenodd" clip-rule="evenodd" d="M408.2 141.973C409.212 142.034 410.211 141.736 410.99 141.141C411.769 140.545 412.268 139.698 412.385 138.773C413.548 135.147 414.71 131.733 415.524 128.107C415.524 126.507 415.524 124.907 416.105 123.413C416.222 121.815 416.222 120.212 416.105 118.613C415.374 115.007 414.404 111.445 413.199 107.947C413.199 107.531 413.108 107.12 412.932 106.738C412.755 106.355 412.496 106.01 412.171 105.721C411.845 105.432 411.46 105.207 411.037 105.058C410.615 104.909 410.164 104.839 409.712 104.853C408.816 104.906 407.975 105.263 407.351 105.855C406.728 106.447 406.367 107.231 406.34 108.053C405.527 111.68 404.248 114.987 403.667 118.72C403.495 120.209 403.495 121.711 403.667 123.2V127.68C403.667 131.413 404.713 134.827 405.062 138.347C405.018 139.197 405.312 140.034 405.889 140.7C406.467 141.367 407.288 141.82 408.2 141.973Z" fill="black"/>
</g>
<path d="M76.3677 319.366C74.4287 320.152 72.5158 320.972 70.6466 321.838C69.1151 322.549 68.5076 324.471 68.9234 326.535C69.2361 328.088 70.5491 330.202 72.1751 329.697C79.0174 327.569 85.6028 324.809 91.9197 321.864C93.1424 321.294 93.7103 319.948 93.6664 318.381C93.638 317.359 93.1763 315.11 91.759 314.531C89.4647 313.594 87.0892 312.064 84.8218 310.837C82.6174 309.644 80.4128 308.451 78.2086 307.258C73.6918 304.813 69.1796 302.406 64.6436 300.079C62.4382 298.948 61.7948 303.459 63.8953 304.829C68.2287 307.657 72.5759 310.406 76.9422 313.128C77.3947 313.411 77.8473 313.693 78.2998 313.975C71.4847 313.718 63.7881 310.781 56.7357 306.427C46.8426 300.319 38.356 290.873 33.359 280.518C30.7224 275.055 29.1527 269.833 28.33 264.532C27.9793 262.274 27.8076 259.91 27.8326 257.346C27.8384 256.747 27.8593 256.155 27.8837 255.563C27.9209 254.65 27.9071 255.226 27.8912 255.42C27.9153 255.131 27.9394 254.841 27.9678 254.554C28.0955 253.263 28.2805 251.998 28.5244 250.766C28.5787 250.492 28.6354 250.22 28.695 249.95C28.6852 249.994 28.8029 249.499 28.8573 249.263C28.8994 249.108 28.9546 248.903 28.9684 248.855C29.0437 248.595 29.1225 248.338 29.203 248.082C29.6277 246.726 30.1121 245.41 30.6706 244.145C31.6434 241.942 32.9493 239.847 34.461 237.892C37.5179 233.938 41.5052 230.785 45.979 228.43C49.6851 226.479 53.8025 224.996 58.1697 224.06C59.6264 230.215 63.2031 237.098 68.7203 241.794C74.5088 246.72 81.0456 248.057 85.5667 245.496C90.5908 242.651 91.3955 235.076 87.7302 227.94C84.7419 222.121 78.911 217.256 73.2576 215.336C69.8844 214.19 66.6869 213.827 63.6466 213.924C63.9174 212.159 64.3674 210.479 64.8729 208.916C67.5508 200.639 72.0809 194.198 78.5522 189.043C91.4476 178.773 110.657 175.488 131.393 180.857C133.879 181.501 136.355 182.085 138.859 182.882C141.05 183.581 142.198 181.907 142.428 180.076C142.59 178.79 142.44 175.154 140.217 174.258C116.339 164.633 93.0746 167.815 77.6345 178.638C69.6643 184.225 63.527 192.158 60.0174 201.828C58.5772 205.797 57.5133 210.081 57.3223 214.731C56.5044 214.903 55.6976 215.091 54.9032 215.294C42.7414 218.396 32.4275 225.337 26.784 236.111C21.6765 245.862 20.5314 258.636 24.3824 272.357C27.8188 284.601 35.1905 297.377 46.268 306.566C55.7301 314.417 66.7157 319.386 76.3677 319.366ZM83.9851 235.457C84.0184 235.56 84.0069 235.54 83.9828 235.464C83.9471 235.563 83.9103 235.661 83.8733 235.759C83.8757 235.751 83.8781 235.741 83.8809 235.73C83.9016 235.678 83.9341 235.591 83.9825 235.462C83.9743 235.436 83.9649 235.404 83.9553 235.368C83.9678 235.404 83.9773 235.433 83.9847 235.456C83.9952 235.429 84.0049 235.402 84.0165 235.371C84.0057 235.399 83.9955 235.428 83.9851 235.457ZM64.3482 223.204C68.2062 223.066 72.4852 223.782 76.6065 226.406C78.6503 227.708 80.767 229.716 82.0914 231.616C82.4559 232.139 82.7862 232.673 83.0997 233.214C83.1228 233.254 83.2928 233.577 83.3211 233.618C83.4152 233.826 83.5039 234.037 83.5844 234.241C83.6478 234.403 83.7012 234.565 83.7583 234.728C83.7762 234.81 83.846 235.057 83.8717 235.129C83.8857 235.168 83.8976 235.202 83.9092 235.234C83.9047 235.389 83.8814 235.578 83.867 235.697C83.7779 235.711 83.2957 236.465 83.6982 236.068C82.9212 236.835 82.541 236.977 81.4208 237.247C79.7327 237.655 77.4652 237.374 75.3549 236.396C70.0862 233.954 66.0997 228.358 64.3482 223.204Z" fill="#231F20"/>
<defs>
<clipPath id="clip0_107_1960">
<rect width="279" height="256" fill="white" transform="translate(185)"/>
</clipPath>
</defs>
</svg>
