<svg width="1924" height="416" viewBox="0 0 1924 416" fill="none" xmlns="http://www.w3.org/2000/svg">
<path d="M781.953 215.285C767.821 198.65 754.345 182.787 731.643 172.413C697.608 156.859 672.338 155.352 649.316 153.98C625.461 152.557 604.018 151.279 577.735 134.665C548.685 116.303 536.955 98.9079 524.899 81.0282C515.522 67.1219 505.947 52.9222 487.87 37.7467C454.435 9.67617 419.698 0 378.38 0H241V334.624H1682.97V0H1545.59C1504.27 0 1469.54 9.67617 1436.1 37.7467C1418.02 52.9222 1408.45 67.1219 1399.07 81.0282C1387.01 98.907 1375.28 116.303 1346.23 134.665C1319.95 151.279 1298.51 152.557 1274.65 153.98C1251.63 155.352 1226.36 156.859 1192.33 172.413C1169.63 182.787 1156.15 198.65 1142.02 215.285C1113.07 249.361 1081.37 286.674 961.986 286.674C842.602 286.674 810.903 249.361 781.953 215.285Z" fill="#068F36"/>
<rect width="251" height="416" fill="#068F36"/>
<rect x="1678" width="246" height="416" fill="#068F36"/>
<rect x="240" y="333" width="1440" height="83" fill="#068F36"/>
</svg>
