<svg width="18" height="18" viewBox="0 0 18 18" fill="none" xmlns="http://www.w3.org/2000/svg">
<path d="M3.37545 3.37491C5.99951 2.06316 8.1567 3.65616 9.00045 4.78116C9.8442 3.65616 12.0014 2.06316 14.6254 3.37491C18.0004 5.06241 17.1567 9.28116 14.6254 11.8124C13.3902 13.0477 11.215 15.2228 9.62426 16.4328C9.44656 16.5678 9.22855 16.6389 9.00544 16.6347C8.78233 16.6305 8.56714 16.5513 8.39463 16.4097C6.93607 15.2324 4.59326 13.0302 3.37545 11.8124C0.844195 9.28116 0.000445366 5.06241 3.37545 3.37491Z" fill="#F8312F"/>
<path d="M9.00045 4.78121V6.49683C9.71482 4.98652 11.4895 2.96996 14.4331 3.28327C11.8962 2.14139 9.82338 3.68377 9.00045 4.78121ZM6.72007 3.11452C5.7717 2.78433 4.62701 2.74889 3.37545 3.37496C0.000445366 5.06246 0.844195 9.28121 3.37545 11.8125C4.59326 13.0303 6.93607 15.2325 8.39463 16.4098C8.56721 16.5512 8.78243 16.6304 9.00554 16.6345C9.22865 16.6386 9.44662 16.5673 9.62426 16.4323C9.76713 16.3235 9.91432 16.2076 10.0658 16.0846C8.46044 14.8792 6.20707 12.9802 4.98363 11.8873C2.19532 9.39483 1.26551 5.24133 4.98363 3.57971C5.53274 3.3297 6.11952 3.17251 6.72007 3.11452Z" fill="#CA0B4A"/>
<path d="M11.8612 9.41305C12.6242 9.85356 13.8447 9.16794 14.5873 7.88166C15.33 6.59538 15.3135 5.19554 14.5505 4.75502C13.7875 4.31451 12.5669 5.00013 11.8243 6.28641C11.0817 7.57269 11.0982 8.97253 11.8612 9.41305Z" fill="#F37366"/>
</svg>
